<svg version="1.2" xmlns="http://www.w3.org/2000/svg" viewBox="0 0 851 851" width="851" height="851">
	<title>national-universityLogo-svg</title>
	<style>
		.s0 { fill: #deb900 } 
		.s1 { fill: #25294a } 
		.s2 { fill: #dcb801 } 
		.s3 { fill: #dcb600 } 
	</style>
	<g id="Layer">
		<path id="Layer" class="s0" d="m77.5 434.1q-0.4 0-2.5-1.2-2.2-1.3-2.8-1.9l-4.5 4.7 3 1.9 3.2 1.4q1.7-1.6 3.2-3.1 2.5 1.7 4.2 2.5 1.8 0.7 2 0.7l4.5-4.7q-3.7-1.5-6.3-3.5-3.4 3.2-4 3.2z"/>
		<path id="Layer" class="s0" d="m103 429.7l-5 4.4q2.1 3.4 5.5 4.3l4.7-4.3q-3.1-2-5.2-4.4z"/>
		<path id="Layer" class="s0" d="m127.9 414.6q-1.4 0-5.6-0.4-4.3-0.4-11-4.1-6.7-3.6-11.4-4.3-3.7-0.3-5.8 3-2 3.3-2.5 6 8.6-2.3 16.1 2-1.9 1-6.7 1.5h-11.2-1.4q-1.8 0-3.3-0.7-1.6-0.6-1.7-1.6-0.1-1.1 0-2.3 0.1-1.2-0.4-1.6-0.6-0.3-1.4 0.6-0.9 0.9-1.6 2.6-0.8 1.7-1.7 2.2-0.9 0.6-3.9 0.8h-6.5q-2.1 0-3.2-0.7-1.5-0.9-2.1-3.2-0.6-2.2-2.2-23.7l-3.7 6.8q1.5 19.7 2.6 23 1.3 5.3 6.9 5.8h1.7 1.3 5.9q4.5 0 5.8-4 0.6 2.6 2.1 3.2 1.4 0.6 3.2 0.7 0.6 0 1.2 0v0.1h10.5q4.4 0 8.2-2.2 3.9-2.3 6-2.5 4.6-1.5 12.1-0.6z"/>
		<path id="Layer" fill-rule="evenodd" class="s0" d="m158.1 426.3h-9.2q-2.9 10.8-9.7 11.8-5.9-0.6-12-2.8l-3.6-1.3 4.6 0.3 3-0.4q4-0.6 5.7-1.2 1.7-0.6 3.4-1.6 1.8-1.1 4.1-4.8h-2.9q-7.1-0.6-6.9-5.7 0.4-5.5 3.3-10.2 2.6-3.8 4.7-3.2 2.2 0.6 4.1 3.9 1.9 3.3 2.6 7.2h1.7 7.6l-1.8-14.7q-0.1-1.2-0.5-2.6-0.6-0.9-0.9-1.3-0.3-0.4-0.7-1-0.4-0.5-0.3-1.3 0-0.8 1.2-3.4l1.9-3.6q0.4 0 0.4 0.7 0.1 0.6 0.5 1.6 0.5 0.9 1 1.4 0.4 0.4 1 0.9 0.6 0.4 4.7 3.2l-3.2 6 0.3 6.3 0.1 3.2 0.1 1.6 0.1 3.1-0.7 2.9-0.8 3q-0.8 2.2-2.9 2zm-14.2-8q-0.8-1.7-1.7-2.5-0.9-0.8-1.6-0.9-0.7 0-1.4 0.5-0.6 0.4-1.2 1.1 0.3 1.6 5.9 1.8z"/>
		<path id="Layer" class="s0" d="m197.1 403.1l4.7-4.3q-2.9-2.1-5-4.4l-5 4.3q2.2 3.4 5.3 4.4z"/>
		<path id="Layer" class="s0" d="m275.1 402.6q1.7-1.7 3.2-3.2 2.5 1.7 4.2 2.5 1.8 0.8 2 0.8l4.5-4.8q-3.7-1.5-6.2-3.5-3.5 3.3-4.1 3.3-0.4 0-2.5-1.3-2.2-1.2-2.8-1.9l-4.5 4.7 3 1.9z"/>
		<path id="Layer" fill-rule="evenodd" class="s0" d="m305.3 398.2l-3.3 5.9 0.3 6.4 0.1 3.2 0.1 1.5 0.1 3.2-0.6 2.9-0.9 2.9q-0.8 2.3-2.9 2h-7.1q-0.9 0-1.9 0-1.8-0.1-3.2-0.7-1.5-0.7-2.1-3.2-1.3 3.9-5.8 3.9h-8.3q-3.5 0.2-5.1-3-1.5 2.6-2 3.1h-56.7v-0.1q-0.9 0-1.9 0-1.8-0.1-3.2-0.7-1.5-0.6-2.2-3.2-1.2 4-5.7 4h-7.6q-2.9 10.8-9.7 11.8-5.9-0.6-12-2.8l-3.6-1.2 4.6 0.2 3-0.4q4-0.6 5.7-1.2 1.7-0.6 3.4-1.6 1.8-1.1 4.1-4.8h-2.8q-7.2-0.6-7-5.7 0.4-5.5 3.3-10.2 2.6-3.8 4.7-3.2 2.2 0.6 4.1 3.9 1.9 3.3 2.6 7.2h6.5q3-0.3 3.9-0.8 0.9-0.5 1.6-2.2 0.8-1.7 1.7-2.6 0.8-0.9 1.3-0.6 0.6 0.3 0.5 1.6-0.1 1.2 0 2.2 0.1 1.1 1.6 1.7 1.5 0.7 3.4 0.7h54.2q-1-1.6-2.6-2.1-1.6-0.5-5.1-0.6-3.5 0-12.6 0.3-5.9 0.2-9.9 0.2-14.6 0-17.6-1.4-1.4-0.6-1.4-1.9-0.1-3 4.3-7.2 4.8-4.6 13.4-8.4 3.8-1.6 7.6-2.6l4.6-1.3-4.9 6.8q-1.9 0.2-5.5 1.6-2.8 1.1-5.6 2.1-2.1 0.8-4.5 2.1-3.3 1.6-3.7 2.7 0.2 1.4 20.6 1.5l8.9-0.3q3.7-0.5 7.9-0.5 4.1 0 6.9 1.2 2.8 1.2 4.1 3.8 1.4 2.6 1.6 3.1 0.4 0.6 1.2 0.8l0.8 0.1h8.4q3-0.3 3.9-0.8 0.9-0.5 1.6-2.2 0.8-1.7 1.7-2.6 0.8-0.9 1.3-0.6 0.6 0.3 0.5 1.6-0.1 1.2 0 2.3 0.1 1 1.6 1.6 1.4 0.7 3.1 0.7h7.5l-1.7-14.7q-0.1-1.2-0.5-2.6-0.6-0.9-0.9-1.3-0.3-0.4-0.7-1-0.4-0.5-0.3-1.3 0-0.8 1.2-3.4l1.9-3.6q0.4 0 0.4 0.7 0.1 0.6 0.5 1.6 0.5 0.9 1 1.4 0.4 0.4 1 0.9 0.6 0.4 4.8 3.2zm-124.8 20.1q-0.9-1.7-1.8-2.5-0.9-0.8-1.6-0.9-0.7 0-1.4 0.5-0.6 0.4-1.1 1.1 0.2 1.6 5.9 1.8z"/>
		<path id="Layer" class="s0" d="m311.8 424.4q0.5-1 1.1-2.4 0.6-1.4 0.9-4.1 0.2-1.7 0.1-4.6l-0.2-1.7-0.2-2.6-0.4-4.1-0.1-1.3-1.1-7.8-0.9-5.2-0.5 0.8-0.5 1.2q-0.6 1.3-1.1 2.5l-0.7 2q-1.1 2.8-1.1 3.5l3.4 25.8q0.7-1.1 1.3-2z"/>
		<path id="Layer" fill-rule="evenodd" class="s0" d="m334 416q0.3 6.7-2.1 12.6-3.3 8.3-8.4 8.3-2.5 0.2-8.1-0.8-5.5-0.9-7-2 7.8 0.2 12.1-1.6 4.7-2.1 7.4-6.2 2.7-4.1 2.7-7.1 0-0.7-0.2-1.2-0.6 2.7-1.2 3.6-0.6 0.8-1.2 1.2-0.6 0.4-1.4 0.7-0.9 0.4-2.7 0.1-1.8-0.3-3.3-2.3-0.7-1.1-0.6-4.6 0.3-2.6 1.9-6.4 3-5.6 5.3-5.7 2.5-0.2 5 4.5 1.9 4 1.8 6.9zm-5.2-0.8q-0.3-0.9-1.2-1.7-0.9-0.8-2-0.9-1 0-1.9 0.9-0.9 0.8-1 1.5 0.8 0.9 2 1.2 1.2 0.3 2.1 0 0.8-0.2 2-1z"/>
		<path id="Layer" class="s0" d="m363.1 418.5q0.4-0.7 0.8-1.5 0.4-0.7 1.2-2.5-1.5-0.7-4.3-3.9-2.8-3.3-3.9-4.3-1.1-1-1.9-1.4-0.7-0.3-1.7-0.6-1.1-0.3-2-0.1-0.9 0.2-1.7 0.7-0.7 0.6-1.3 1.5-0.6 1-1.3 3-0.7 2.1-0.8 3.3-0.1 1.3 0.6 0.5 0.8-0.8 1.9-1.1 1.1-0.4 2.4 0 1.2 0.3 2.4 1.2-2.8 0.5-4.5 1.3-1.6 0.8-2.4 1.6-0.8 0.8-1.2 2-0.5 1.2-1 4.1v1.9q0 1 0.2 1.8l1.8 16.1 0.5-0.3q1.3-1.3 1.6-2.9 0.3-1.5 0.5-2.4 0.1-1 0.1-2.7-0.1-1.6-1.2-10.5 1.6-1.5 2.7-1.7 1.2-0.3 3-0.7 1.9-0.4 8.1 0.5 1.1-2.1 1.4-2.9z"/>
		<path id="Layer" fill-rule="evenodd" class="s0" d="m464.8 398.2l-3.3 5.9 0.3 6.4 0.2 3.2 0.1 1.5v3.2l-0.6 2.9-0.9 3q-0.7 2.2-2.8 1.9h-8.4q-5.6-0.4-6.9-5.7-0.5 4.3-2.2 5-1.5 0.6-4.8 0.7v0.1h-9.2q-1.7 0-3-0.8-1.4-0.7-2.4-2.1-1.1 1.4-2.7 2.1-1.6 0.8-3.1 0.8h-11.2q-5.6-0.5-6.9-5.8-0.5 4.4-2.2 5.1-1.3 0.5-3.9 0.6v0.1h-4.9q-2.9 10.8-9.7 11.8-5.9-0.6-12-2.8l-3.6-1.3 4.6 0.3 3-0.4q4-0.6 5.7-1.2 1.7-0.6 3.4-1.6 1.7-1.1 4-4.8h-2.8q-7.1-0.6-6.9-5.7 0.4-5.5 3.3-10.2 2.5-3.8 4.7-3.2 2.2 0.6 4.1 3.9 1.9 3.3 2.6 7.2h4.5q4.3-0.1 4.6-1.4 0.5-1.7 0.2-3.3-0.2-1.5-1.7-16.6l4.2-6.8q1.6 22 1.9 24.2 0.4 2.3 2.1 3.2 1.3 0.7 3.5 0.7h11.8q-0.7-1.2-1.8-1.9-1.1-0.7-2.4-0.9-1.2-0.2-1.9 0-0.7 0.2-0.8-0.1-0.1-0.3 2.3-6.6 1.5-0.9 3.8-1.4 2.2-0.5 5.7-0.1 3.5 0.5 5.5 2.4 1.9 1.9 0.6 5-0.7 1.8-1.9 3.6h8.9q5.2 0.1 5.5-1.4 0.5-1.7 0.2-3.3-0.2-1.5-1.7-16.6l4.2-6.8q1.5 22 1.9 24.2 0.4 2.3 2.1 3.2 1.1 0.6 3 0.7h7.5l-1.8-14.7q-0.1-1.2-0.5-2.6-0.5-0.9-0.8-1.3-0.4-0.4-0.8-1-0.3-0.5-0.3-1.3 0.1-0.8 1.3-3.4l1.8-3.6q0.4 0 0.5 0.7 0 0.6 0.5 1.6 0.5 0.9 0.9 1.4 0.5 0.4 1.1 0.9 0.6 0.4 4.7 3.2zm-83.8 20.1q-0.8-1.7-1.7-2.5-0.9-0.8-1.6-0.9-0.7 0-1.4 0.5-0.6 0.4-1.1 1.1 0.2 1.6 5.8 1.8z"/>
		<path id="Layer" class="s0" d="m479.9 399.9q1.6-1.7 3.2-3.2 2.4 1.7 4.2 2.5 1.7 0.7 2 0.7l4.5-4.7q-3.7-1.5-6.3-3.5-3.5 3.2-4 3.2-0.4 0-2.6-1.2-2.1-1.3-2.8-1.9l-4.5 4.7 3 1.9z"/>
		<path id="Layer" class="s0" d="m515.5 434.1q-0.4 0-2.5-1.2-2.2-1.3-2.8-1.9l-4.6 4.7 3 1.9 3.3 1.4q1.6-1.6 3.2-3.1 2.5 1.7 4.2 2.5 1.8 0.7 2 0.7l4.5-4.7q-3.7-1.5-6.3-3.5-3.4 3.2-4 3.2z"/>
		<path id="Layer" class="s0" d="m535 403.1l4.7-4.3q-2.8-2.1-5-4.4l-4.9 4.3q2.1 3.4 5.2 4.4z"/>
		<path id="Layer" fill-rule="evenodd" class="s0" d="m579.1 414.1q-6 11.8-16.6 12.1-9.4 0-18.4 0-1 0-2 0-1.8-0.1-3.3-0.7-1.4-0.7-2.1-3.2-1.3 3.9-5.7 3.9h-5.4q-0.7 0-1.4 0-1.7-0.1-3.2-0.7-1.4-0.6-2.1-3.2-1.3 4-5.8 4h-7.9q-3.6 0-6.3-2.4-1.1-1.5-2.3-4.6-1-2.4-2.5-3.6-1.5-1.2-4.6 3l-4.7 8.4q-2.7 4.2-5 4.2-6.5 0.3-6.8-14.4l0.4-3.8q0.3-4.3 1.7-5.4-0.5 5.3 0.3 9.7 1.2 6.6 4.4 6.5 2.6 0.4 4.8-4.2 2.1-4.7 5.2-7.8 3.1-3 5.8-3.3 2.3 0.3 3.1 1.9 0.4 1.7 1.3 3.4 0.8 1.7 1.7 3 1.2 1.6 3.9 1.4h6.8q3-0.2 3.9-0.8 0.9-0.5 1.7-2.2 0.7-1.7 1.6-2.6 0.8-0.9 1.4-0.6 0.5 0.4 0.4 1.6-0.1 1.2 0 2.3 0.2 1 1.7 1.6 1.5 0.7 3.3 0.7h3.8q3.1-0.2 3.9-0.8 0.9-0.5 1.7-2.2 0.8-1.7 1.6-2.6 0.9-0.9 1.4-0.6 0.5 0.4 0.4 1.6-0.1 1.2 0.1 2.3 0.1 1 1.6 1.6 1.5 0.7 3.4 0.7h3.5l1.4-0.7-1.8-15.2q-0.2-2.2-0.8-2.7-0.6-0.5-1-1.2-0.4-0.6-0.2-1.3 0.1-0.8 0.7-2.1 0.6-1.2 1.4-2.9 0.9-1.8 1.2-1.5 0.2 0.3 0.1 1.2-0.2 0.9 0.8 1.6 0.9 0.7 1.7 1.4 0.8 0.6 4.8 3.5l-3.7 5.9 0.6 5.7q-0.2 4.6-1.5 6.5 4.4-3 12.4-7.2 3.2-1.9 7.1-2.4 4.7 0.3 7.2 3.5c1.1 1.4 1.4 2.6 0.9 3.7zm-6.7 2.8q-1-1.5-3.5-2.6-2.5-1-5.8 0-4.2 1.3-9.3 4h9.3q8.2 0 9.3-1.4z"/>
		<path id="Layer" fill-rule="evenodd" class="s0" d="m616.5 398.2l-3.3 6 0.3 6.3 0.2 3.2 0.1 1.6v3.1l-0.6 2.9-0.9 3q-0.7 2.2-2.8 2h-9.3q-2.9 10.8-9.7 11.8-5.8-0.6-12-2.8l-3.5-1.2 4.5 0.2 3-0.4q4-0.6 5.7-1.2 1.8-0.6 3.5-1.6 1.7-1.1 4-4.8h-2.8q-7.2-0.6-6.9-5.7 0.4-5.5 3.2-10.2 2.6-3.8 4.8-3.2 2.2 0.6 4 3.9 1.9 3.3 2.6 7.2h1.8 7.5l-1.8-14.7q-0.1-1.2-0.5-2.6-0.5-0.9-0.8-1.3-0.4-0.4-0.8-1-0.3-0.5-0.3-1.3 0.1-0.8 1.3-3.4l1.9-3.6q0.3 0 0.4 0.7 0 0.6 0.5 1.6 0.5 0.9 0.9 1.4 0.5 0.4 1.1 0.9 0.6 0.4 4.7 3.2zm-21.2 20.1q-0.8-1.7-1.7-2.5-0.9-0.8-1.6-0.9-0.7 0-1.4 0.5-0.6 0.4-1.2 1.1 0.3 1.6 5.9 1.8z"/>
		<path id="Layer" class="s0" d="m624.9 411.5l-0.1-2.5-0.4-4.2-0.1-1.2-1.1-7.9-0.9-5.1-0.5 0.8-0.5 1.2q-0.7 1.3-1.1 2.5l-0.8 2q-1 2.8-1 3.5l3.4 25.8q0.7-1.1 1.2-2 0.6-1 1.2-2.4 0.6-1.4 0.9-4.1 0.1-1.7 0-4.6z"/>
		<path id="Layer" class="s0" d="m641.2 399.9q1.7-1.7 3.2-3.2 2.5 1.7 4.2 2.5 1.8 0.7 2 0.7l4.5-4.7q-3.7-1.5-6.3-3.5-3.4 3.2-4 3.2-0.4 0-2.5-1.2-2.2-1.3-2.8-1.9l-4.5 4.7 2.9 1.9z"/>
		<path id="Layer" fill-rule="evenodd" class="s0" d="m718.3 413.4q0.4 1.9 0.8 6.3-1.6 2.3-4 5.6-6.1-3-9.6-5.5-1.6 3.6-2.2 4.6-0.7 0.9-2 1.4-1.3 0.5-3.1 0.5h-10.5q-1.7 0-3-0.8-1.3-0.7-2.4-2.1-1.1 1.4-2.6 2.1-1.6 0.8-3.2 0.8h-10q-3.6 0-6.3-2.4-1.1-1.5-2.3-4.6-0.9-2.4-2.4-3.6-1.5-1.2-4.6 3l-4.8 8.4q-2.7 4.2-5 4.2-6.5 0.3-6.7-14.4l0.3-3.8q0.3-4.4 1.7-5.4-0.5 5.3 0.3 9.7 1.2 6.6 4.5 6.4 2.5 0.5 4.7-4.2 2.1-4.6 5.2-7.7 3.1-3 5.8-3.3 2.4 0.3 3.1 1.9 0.5 1.7 1.3 3.4 0.9 1.7 1.8 3 1.1 1.6 3.8 1.4h12q-0.7-1.2-1.8-1.9-1.1-0.7-2.3-0.9-1.3-0.2-2 0-0.7 0.2-0.8-0.1-0.1-0.3 2.3-6.6 1.5-0.9 3.8-1.4 2.2-0.5 5.7-0.1 3.5 0.5 5.5 2.4 1.9 1.9 0.6 5-0.7 1.8-1.9 3.6h9.6q4.7 0.1 6-1.6 1.3-1.7 2.6-3.6 1.3-1.9 2.4-2.9 1.1-1.1 2-1.6 0.8-0.6 1.9-1 1-0.4 2.5-0.4 0.5 0.1 1 0.4 0.7 0.7 0.9 1.2 0.3 0.6 0.6 1.7 0.4 1 0.8 2.9zm-4.9 2.9q-0.3-2.2-1.3-3.4-0.7-0.5-1.5-0.2-0.7 0.2-1.3 0.7 1.9 1.8 4.1 2.9z"/>
		<path id="Layer" class="s0" d="m748 429.7l-5 4.4q2.2 3.4 5.5 4.4l4.8-4.4q-3.2-2-5.3-4.4z"/>
		<path id="Layer" class="s0" d="m779.2 395q-0.6-0.5-1-0.9-0.5-0.5-1-1.4-0.4-1-0.5-1.6 0-0.7-0.4-0.7l-1.9 3.6q-1.1 2.6-1.2 3.4-0.1 0.8 0.3 1.3 0.4 0.6 0.7 1 0.3 0.4 0.9 1.3 0.4 1.4 0.5 2.6l1.7 14.7h-1.3-10.1-2.6-3.4q-2.4-0.1-3-1.1 1.9-0.7 4.2-0.8 2.4-0.2 5.1-0.2 2.6-5 3.1-6.5-6.2 0.3-11-0.7-4.9-0.9-7.8-2.1-2.9-1.2-5.6-1.2-2.7 0.1-4.4 2-1.7 1.9-2.5 4-0.7 2.1-0.7 3.4 2.7-1.2 6.6-1.2 3.8 0.1 8.9 1.4-2.2 2.6-8.4 3h-11.2q-1.9 0-3-0.7-1.4-0.9-2-3.2-0.7-2.2-2.3-23.7l-3.6 6.8q1.4 19.7 2.5 23 1.3 5.3 6.9 5.8h1.5 1.5 5.9q1.3 0 3.4-0.3 2.2-0.3 5.4-2.9 2.2-2.3 3.7-3.5l1.5-1.3q0.1 7.7 5.8 8h16.5q2.1 0.2 2.9-2l0.8-2.9 0.7-2.9-0.1-3.2-0.1-1.6-0.2-3.2-0.2-6.3 3.2-5.9q-4.1-2.9-4.7-3.3z"/>
		<path id="Layer" class="s0" d="m793 413.3l-0.2-1.8-0.2-2.5-0.3-4.2-0.1-1.2-1.1-7.9-0.9-5.1-0.5 0.8-0.6 1.2q-0.6 1.3-1 2.5l-0.8 2q-1 2.8-1 3.5l3.3 25.8q0.8-1.1 1.3-2 0.6-1 1.1-2.4 0.6-1.4 1-4.1 0.1-1.7 0-4.6z"/>
	</g>
	<g id="Layer">
		<g id="Layer">
			<path id="Layer" class="s1" d="m787.4 370.1v-283.8h-261.7c-26.5 0-68.5 0-100.7 32.2-32.2-32.2-78.3-32.2-104.7-32.2h-257.7v283.9z"/>
			<path id="Layer" fill-rule="evenodd" class="s0" d="m56.6 376.2v-295.9h263.7c25.1 0 71 0 104.7 29.9 33.4-29.9 75.2-29.9 100.7-29.9h267.7v295.9zm12.1-12.1h712.6v-271.8h-255.7c-26.2 0-65.9 0-96.3 30.5l-4.3 4.3-4.3-4.3c-30.4-30.5-74.2-30.5-100.4-30.5h-251.6z"/>
		</g>
		<g id="Layer">
			<path id="Layer" class="s1" d="m422.9 803.9l313.3-191.1c31.6-17.6 51.2-51 51.2-87.2v-28.6h-724.8v28.6c0 36.4 19.7 69.9 51.5 87.6z"/>
			<path id="Layer" fill-rule="evenodd" class="s2" d="m422.8 811l-311.9-192.6c-33.4-18.7-54.3-54.3-54.3-92.8v-34.7h736.8v34.7c0 38.4-20.8 73.8-54.2 92.5zm-354.2-308v22.6c0 34.2 18.5 65.7 48.3 82.4l305.9 188.8 310.2-189.1c29.8-16.7 48.2-48.1 48.2-82.1v-22.6z"/>
		</g>
		<path id="Layer" fill-rule="evenodd" class="s2" d="m770.8 365.1c0 0.4-0.1 0.8-0.4 1.2-0.3 0.3-0.7 0.5-1.2 0.5l-75.5-0.4-26.2-0.1v-0.4q-0.4 0.3-0.9 0.4l-17.5-0.1-4.5-0.1h-2.6v3.4c0 0.9-0.7 1.6-1.6 1.6l-48.4-0.2v3.4c0 0.9-0.7 1.6-1.6 1.6l-10.1-0.1q-0.1 0-0.1 0l-80.3-6.7-143.2 5.6q-0.1 0-0.1 0-0.2 0-0.5-0.1l-23.9-7.6-151.7-0.8-15 2.4c-0.1 0.7-0.7 1.3-1.5 1.3l-84.2 4.6q-0.1 0-0.1 0c-0.5 0-0.9-0.2-1.2-0.6-0.4-0.3-0.5-0.8-0.4-1.3l28.9-159.9c0.1-0.6 0.5-1 1-1.2l6.8-2.5c0.5-0.2 1.1-0.1 1.6 0.3 0.4 0.3 0.6 0.9 0.5 1.5l4.3-1.6 0.3-2.6c0.1-0.6 0.5-1.1 1.1-1.3l6.8-2.5c0.5-0.2 1.1-0.1 1.5 0.3 0.4 0.3 0.7 0.9 0.6 1.4v0.2l9.1-4 0.3-2.8c0.1-0.5 0.5-1 1.1-1.3l9.7-3.7c0.5-0.1 1.1-0.1 1.5 0.3 0.4 0.3 0.7 0.9 0.6 1.4v0.3l12-4.5 0.4-2.4c0.1-0.5 0.4-1 1-1.2l9.7-3.7c0.5-0.2 1.1-0.1 1.6 0.2 0.3 0.3 0.5 0.7 0.6 1.1l8.9-2.4 0.5-3.8c0.1-0.6 0.5-1.1 1.1-1.3l10.3-3.6q0.4-0.2 0.9-0.2l20.9 0.9 0.8-8.1c0-0.6 0.5-1.2 1.1-1.4l12.6-3.7c0.3 0 6.8-0.7 12.4-2.8q0.8-0.4 1.6-0.7c1.4-0.6 2.8-1.4 3.9-2.3 6.2-5.3 22.6-5.3 23.3-5.3q0.2 0 0.4 0.1c0.2 0 13.2 3.5 27-3.5 10.8-5.5 28.5-4.4 45.7-3.3 6.7 0.5 13.6 0.9 19.9 0.9 21.1 0.2 40.9 11 43.9 12.8l81 0.4q0.2 0 0.5 0.1l26.8 9.4 30.2 0.2c0.5 0 1 0.2 1.3 0.6l3.8 5 52.5 0.3c0.8 0 1.5 0.6 1.6 1.4l2.6 22.4h2.5c0.8 0 1.6 0.7 1.6 1.6l-0.1 3.4 33.7 0.2-0.1-0.9c0-0.4 0.2-0.8 0.5-1.1 0.3-0.3 0.7-0.5 1.2-0.5l21.3 0.1c0.8 0 1.6 0.7 1.6 1.6l-0.1 2.2 32.7 0.1v-0.8c0-0.4 0.1-0.9 0.4-1.2 0.3-0.3 0.7-0.5 1.2-0.5l22.3 0.1c0.7 0 1.4 0.6 1.5 1.4l20.6 126.7 13 10c0.3 0.3 0.6 0.7 0.6 1.1zm-58.2-161.1l5.7 96.4 33.4 25.8-19.8-122.1zm-35.9 2.3l1 31.8h0.1c0.8 0 1.4 0.6 1.5 1.4l4.4 34.2 31.1 24.1-5.3-91.3zm-21.3-3.9l0.9 36.9 8.7-1.2h9.5l-1.1-33.4q0 0 0 0l0.1-2.2zm-3.2 2.5l-33.7-0.2-0.1 25.1 20.6 14h0.9q0.2 0.1 0.4 0.1l12.8 0.2zm-4.9 158.1l-5-115.9h-0.7l4.4 115.9zm-10.6-15.3l-46.9-55.4-3.7-4.5q-0.1 0-0.1 0l-69.6-82.3h-4.6l113.9 141.2zm-119.5-145.3c0.5 0 0.9 0.2 1.2 0.5l2.1 2.4 0.1-19.7h-1.5l-0.1 12.1h-3.2l0.1-12.1-3.8-0.1v12.2h-3.2v-12.2h-6.5l-0.1 26.6 1.6 1.6 0.1-9.8c0-0.9 0.7-1.6 1.6-1.6zm-182.4 54.5l-149.1 97.6 8.7 0.1 140.3-93.8zm-102.4 63.1l31.8-20.8 0.6-111.2-31.7-1.3zm5.6-146.5c1.4-3.6 3.1-7.5 5.3-10.5-2.1 0.5-4 0.8-5.2 0.9zm87.7 14.8l-31.6-0.2-0.5 91.8 31.8-20.8zm-34.9-2.7l-22.9-0.1-0.6 111.6 23-15.1 0.5-95.5zm56.9 56.2l0.3-55v-0.9l-19.1-0.1-0.4 71.2 6.3-4.1 0.3-7.4c0-0.8 0.5-1.4 1.3-1.5zm3.2-0.6l3-0.6 0.6-8.9c0-0.8 0.6-1.4 1.3-1.5l7.8-1.2h7.5l8.6-5.6 0.2-34.4-28.8-0.2zm25.6-11.8c0.4 0.3 0.6 0.7 0.6 1.2l0.1 2.2 74.4-48.5c0.2-0.7 0.8-1.1 1.5-1.1h8.9v-5.5h-6.5zm175.4-59.4l-145.2-0.7-3.1 4-0.1 34.6 34.6-22.7 0.1-9.2c0-0.9 0.7-1.6 1.6-1.6l23.9 0.1c0.9 0 1.6 0.7 1.6 1.6l-0.1 7.1 17.2 0.1c0.8 0 1.5 0.8 1.5 1.6v17.2h1.6l0.1-25.9c0-0.9 0.8-1.6 1.6-1.6l18.4 0.1c0.9 0 1.6 0.7 1.6 1.6v5.9l14.9 0.1c0.8 0 1.5 0.7 1.5 1.6v1.7l29.4 0.2q0.5 0 0.9 0.3l15.6 10.5v-0.3h4.9l-18.6-21.2q-0.1 0-0.1-0.1zm-84 28.7l0.1-12.2h-5.4l-0.2 53.1h10.3l0.2-34.7c0-0.7 0.5-1.3 1.1-1.5 0.2 0 0.4-0.1 0.5 0h6.2l0.1-16.8h-3.1l-0.1 12.1h-3.2l0.1-12.2h-3.3l-0.1 12.2zm-5.3 44h-1.8-2.4l-29.4-0.1 3.5 124.4 33.3 0.3zm-33.4 124.2l-3.5-124.4h-1l2.9 124.4zm22-127.5l0.3-51.3-74.2 48.3 0.1 2.6zm-86.1-0.4l9.1 0.1-0.2-6.9h-1.8l-0.3 0.2-0.1-0.2h-6.4zm94.1 0.4l0.2-53h-4.7l-0.2 53zm-38.2 3l2.9 124.4h0.5l-2.8-124.4zm-20.6-67.9l-6.3-0.1-10.9 13.9q0 0 0 0l-0.2 32.9 17.2-11.2zm-43.2 65.5l4.7-0.9 0.3-6.7-4.5 0.7zm-0.2 3.3l-8.5 125.7 6.4 2 6.8-128.6zm1.1 128.2l20.6-0.8-4.4-128.4-9.4-0.1zm23.8-0.9l20.3-0.8-4.9-127.4-19.8-0.1zm23.5-0.8l15.4-0.6q-0.1-0.3-0.1-0.6l-2.9-126-17.2-0.1zm63.4-2.4l10.2-0.4-4.9-124.1h-8.4zm13.4-0.5h0.8l-3.6-123.9h-0.7-1.4zm5-0.5l-3.4-123.3-1.2-0.1 3.6 123.6zm10-126.5l-21.3-29.8-0.1 29.7h5.1q0.1 0 0.1 0zm4 126.4l77.2 6.4 0.1-23.2-76.7-103.2zm85.8-19l-103.4-140.6h-6.2l24 33.5 79.5 107.1zm-83.1-169.3l-15.2-0.1-0.2 24.3h1.7l0.1-17.1c0-0.8 0.6-1.5 1.4-1.6l8.7-1.2h3.4zm-10.5 25.2l5.5 5.6 0.2-23.1-5.6 0.8zm30 5.8l28.1 33.2 31.1 0.6q0.1 0 0.3 0l3.7 0.1q0 0 0.1 0l46.4 0.9-17.8-12.1h-0.3v-0.1l-62.6-42.5-28.9-0.2-0.1 20.1zm98.9 159l-118.1-149.3-13-13.3h-4.4l104.8 142.5q0.3 0.5 0.3 1l-0.1 18.9zm1.5-3.2l-0.6-15.9-115.6-143.4h-0.6v11.6zm-39.6-83.7l1.2 1.4-0.5-36.3h-0.5zm34.6 41l-1.4-75.3-25.4-0.4 0.7 44.8zm18.2 21.4l-2.8-96.3-13.6-0.3 1.5 79.1zm-24.1-143.6l-39.2-0.2 41.4 28.1 0.1-24.5v-3.4zm-14.8-3.3l0.1-20.5-37.8-0.2 18.2 20.6zm10.7-20.5h-7.4l-0.1 20.6h9.9zm-359.1-14.9c-5.7 3.2-9.8 15.9-11.4 22.6l26.5 1v-0.8c0-0.9 0.7-1.6 1.6-1.6l26.1 0.1c0.9 0.1 1.6 0.8 1.6 1.7v0.9l31.7 0.1v-0.9c0-0.9 0.7-1.6 1.6-1.6l22.3 0.1c0.8 0 1.5 0.8 1.5 1.6v1.4l30 0.2 10.8-13.9c0.3-0.4 0.8-0.6 1.3-0.6h7.7l3.6-4.6c0.3-0.4 0.8-0.7 1.3-0.7l106.7 0.6-17.8-6.3-81.1-0.4q-0.5 0-0.8-0.2c-0.2-0.1-21.2-12.4-42.7-12.5-6.4-0.1-13.4-0.5-20.1-0.9-16.7-1.1-34.1-2.2-44.1 2.9-14.1 7.2-27.1 4.2-29 3.7-4.6 0.1-16.7 0.9-21.1 4.6-1.7 1.4-3.9 2.6-6.2 3.5zm200.1 16.6h-8.5v5.5zm-225-3.4l6.9 0.3c0.8 0.1 1.5 0.8 1.5 1.7v7.2h1.6l0.1-18.9-9.5 2.8zm-22.8 2.2l-19.7 176.4 46.9-30.8 0.8-137.1v-7.2zm-36.2 188.9l12.8-2 0.1-7.4q0 0 0-0.1 0 0 0 0l20-178.7-7.4 2.5zm-77.1 5.5l24.5-157.8-3.3 1.2-28.4 157zm9.8-0.6l22-157.4-4.3 1.7-24.2 155.6zm6.7-0.2l22.7-163.2-3.4 1.3-22.7 162.1zm13.6-0.9l21.2-164.6-9.1 3.9-22.4 160.6zm13.5-0.6l18-171.5-6.4 2.4-21.8 169.7zm8.8-0.6l24.1-173.8-11.9 4.4-17.7 169.4zm11.5-0.5l22.8-180.4-6.4 2.5-24.7 178.3zm34.7-181.9l-8.8 2.4-22.7 179.3 6.6-0.3zm-5.5 177.6l148.9 0.8 3.7-99.3-138.8 92.7q-0.4 0.3-0.9 0.3l-12.9-0.1zm152.1 1.3l11.5 3.6 8.3-124.1-15.4 2.9zm164.9-121.4l-11.8-0.1 3.5 123.5 7.7-0.3zm89.7 128.1h-2.6v-3.2h2.7l0.1-17.4h-6.9l-0.1 22.3 6.8 0.1zm1-83.8l-0.7-41.1h-0.6l0.5 40.1zm-8.5-10l0.2-31.2-26.9-0.5zm57.4 90.9l0.1-16.9-12.2-1.1 0.7 17.9zm3.3-18.4v13.5h0.9l-4.4-115.9-0.1 0.1-0.3-0.2h-0.5l2.9 100.2 1.2 1.3c0.2 0.3 0.3 0.7 0.3 1zm22.8 13.6l-6-115.7-13.3-0.3 5.1 115.9zm3.2 0h1.8l-6.1-121.6-5.6 0.7v2l2.3 0.1c0.8 0 1.5 0.6 1.5 1.5zm23.8 0.1l-15.4-121.9-9.5-0.1 6.1 121.9zm75.7 0.4l-1.7-22.6-81.5-62.9 10.8 85.1z"/>
		<g id="Layer">
			<g id="Layer">
				<path id="Layer" class="s0" d="m425 86.8l-4.3-4.3c-30.4-30.4-74.2-30.4-100.4-30.4h-263.7v-12.1h263.7c25.1 0 71 0 104.7 29.9 33.3-29.9 75.2-29.9 100.6-29.9h267.8v12.1h-267.8c-26.2 0-65.9 0-96.3 30.4z"/>
			</g>
		</g>
		<g id="Layer">
			<path id="Layer" class="s3" d="m294.4 582.2l-24.1-35.5h-18.5v64.2h18.6v-35.3l24 35.3h18.7v-64.2h-18.7z"/>
			<path id="Layer" class="s3" d="m397.9 585.8q0 5.4-2.9 8.3-2.9 2.9-8 2.9-5.2 0-8.1-3-2.9-2.9-2.9-8.2v-39.1h-19.8v38.2q0 4.7 1.8 10.9 1.2 3.8 4.3 7.4 3.1 3.6 6.8 5.5 3.7 1.9 9.2 2.6 5.6 0.7 10.3 0.7 8.1 0 13.8-2.2 4.2-1.5 8-5.3 3.8-3.8 5.5-8.8 1.8-5.1 1.8-10.8v-38.2h-19.8z"/>
			<path id="Layer" class="s3" d="m501.7 573.4q-5.7-2.9-18.7-5.7-5.2-1.1-6.6-2.4-1.5-1.2-1.5-2.7 0-2.1 1.8-3.6 1.7-1.5 5.2-1.5 4.2 0 6.6 2 2.4 2 3.1 6.3l18.7-1.1q-1.2-10-7.7-14.5-6.4-4.6-18.7-4.6-10.1 0-15.8 2.5-5.8 2.5-8.6 6.9-2.9 4.4-2.9 9.4 0 7.5 5.6 12.3 5.5 4.9 18.6 7.8 8 1.8 10.2 3.8 2.1 1.9 2.1 4.4 0 2.6-2.3 4.6-2.3 2-6.5 2-5.7 0-8.8-3.9-1.9-2.4-2.5-7l-18.8 1.2q0.8 9.7 7.1 16 6.3 6.3 22.7 6.3 9.3 0 15.4-2.7 6.2-2.7 9.6-7.9 3.4-5.2 3.4-11.4 0-5.2-2.6-9.5-2.5-4.2-8.1-7z"/>
			<path id="Layer" class="s3" d="m547.7 546.7v15.8h20.3v48.4h19.8v-48.4h20.2v-15.8z"/>
			<path id="Layer" class="s3" d="m336.9 611.2c-5.5 1.3-11-2.1-12.3-7.6-1.3-5.6 2.1-11.1 7.6-12.4 5.5-1.3 11.1 2.1 12.4 7.7 1.3 5.5-2.2 11-7.7 12.3z"/>
			<path id="Layer" class="s3" d="m443.9 608.5c-4 4-10.5 4-14.5 0-4-4-4-10.5 0-14.5 4-4 10.5-4 14.5 0 4 4 4 10.5 0 14.5z"/>
			<path id="Layer" class="s3" d="m540.7 608.5c-4 4-10.5 4-14.5 0-4-4-4-10.5 0-14.5 4-4 10.5-4 14.5 0 4 4 4 10.5 0 14.5z"/>
		</g>
		<g id="Layer">
			<path id="Layer" class="s3" d="m390.2 692.8c5-7.8 0.7-17.4-9-17.2-6 0.2-10.9 3.8-10.8 11.1 2.8 0 4.5 0 7.3 0 0-2.4 1.4-3.3 3.4-3.3 4.2 0 2.9 4.4 1.2 6.7l-12.7 18.7v1.3h23.8c0-3 0-4.8 0-7.8h-10z"/>
			<path id="Layer" fill-rule="evenodd" class="s3" d="m424 687.2c0 3.8 0 8.1 0 11.9 0 7.4-5.7 11.6-12.7 11.6-6.9 0-12.7-4.2-12.7-11.6 0-3.8 0-8.1 0-11.9 0-7.4 5.8-11.7 12.7-11.7 7 0 12.7 4.3 12.7 11.7zm-8.2 0.1c0-2.6-2-4-4.5-4-2.5 0-4.4 1.4-4.4 4 0 3.7 0 7.9 0 11.6 0 2.7 1.9 4.1 4.4 4.1 2.5 0 4.5-1.4 4.5-4.1 0-3.7 0-7.9 0-11.6z"/>
			<path id="Layer" class="s3" d="m442.4 676.2h-13v7h4.6v19.8h-5.1v7h18.6v-7h-5.1z"/>
			<path id="Layer" class="s3" d="m459.6 687.7v-4.2h14v-7.3h-21.2v18.8c2.6 0 8.1-0.7 11.5 0.3 1.9 0.5 3 1.6 3.1 3.6-0.1 2.8-1.5 4.2-3.9 4.2-2.3 0-3.7-1.2-3.8-3.4h-7.4c0.3 6.8 5 11 11.4 11 7.9 0 12-6 11.9-11.8 0-10.1-7.7-11.7-15.6-11.2z"/>
		</g>
	</g>
	<g id="Layer">
		<path id="Layer" class="s0" d="m69.3 464.9l-9-8.8h-1.7v17.9q2.4 0 4.8 0v-8.7l9 8.8h1.6v-17.9q-2.3-0.1-4.7-0.1z"/>
		<path id="Layer" fill-rule="evenodd" class="s0" d="m86.3 455.9l8.1 17.5v0.6h-4.5l-1-2.2h-7.1l-1 2.2h-4.5v-0.6l8-17.5zm1.1 12l-2-4.7-2.1 4.7z"/>
		<path id="Layer" class="s0" d="m93.8 460.3l4.4-0.1v13.8q2.2 0.1 4.5 0v-13.8h4.4q0-2 0-4h-13.3q0 2 0 4z"/>
		<path id="Layer" class="s0" d="m115.2 460.1h2.1v-3.9h-8.7v3.9h2.1v9.9h-2.3v4h9.1v-4h-2.3z"/>
		<path id="Layer" fill-rule="evenodd" class="s0" d="m137.7 465.1c0 12.4-18.3 12.4-18.3 0 0-12.3 18.3-12.3 18.3 0zm-4.7 0c0-6.4-8.9-6.4-8.9 0 0 6.5 8.9 6.5 8.9 0z"/>
		<path id="Layer" class="s0" d="m151.8 464.9l-9-8.8h-1.7v17.9q2.4 0 4.8 0v-8.7l9 8.8h1.6v-17.9q-2.3-0.1-4.7-0.1z"/>
		<path id="Layer" fill-rule="evenodd" class="s0" d="m168.8 455.9l8.1 17.5v0.6h-4.5l-1-2.2h-7.1l-1 2.2h-4.5v-0.6l8-17.5zm1.1 12l-2-4.7-2.1 4.7z"/>
		<path id="Layer" class="s0" d="m183.8 456.2c-1.6 0-3.1 0-4.6 0v17.9c3.6 0 7.4 0 11.1 0 0-1.6 0-2.6 0-4.2h-6.5c0-7.6 0-4.5 0-13.7z"/>
		<path id="Layer" class="s0" d="m210.1 468c0 1.5-1.4 2.2-2.7 2.2-1.4 0-2.7-0.7-2.7-2.2v-11.8c-1.5 0-3 0-4.4 0v11.9c0 3.9 3.4 6.2 7.1 6.2 3.7 0 7.1-2.3 7.1-6.2v-11.9c-1.5 0-2.9 0-4.4 0z"/>
		<path id="Layer" class="s0" d="m229.6 464.9l-9.1-8.8h-1.6v17.9q2.3 0 4.7 0v-8.7l9 8.8h1.7v-17.9q-2.4-0.1-4.7-0.1z"/>
		<path id="Layer" class="s0" d="m244.1 460.1h2.1v-3.9h-8.7v3.9h2.1v9.9h-2.3v4h9.1v-4h-2.3z"/>
		<path id="Layer" class="s0" d="m256.8 466.3h-0.2l-4.2-10.1h-4.3v0.7l7.6 17.3h1.9l7.6-17.3v-0.7h-4.3z"/>
		<path id="Layer" class="s0" d="m272.6 466.8h6.1q0-2 0-4h-6.1v-2.6c2.7 0 4 0 6.7 0q0-2 0-4c-4.2 0-7.1 0-11.2 0q0 8.9 0 17.8c4.1 0 7.2 0 11.4 0q0-2 0-4c-2.7 0-4.2 0-6.9 0 0-1.1 0-2.1 0-3.2z"/>
		<path id="Layer" fill-rule="evenodd" class="s0" d="m295 467.7l3.5 5.7v0.7h-5.1l-3.1-5.3h-2.4v5.3c-1.5 0-3 0-4.5 0q0-9 0-17.9c2.6 0 5.2 0 7.8 0 7.1 0 8.3 8.4 3.8 11.5zm-3.8-7.4c-1-0.1-2.2 0-3.2 0 0 1.4 0 3 0 4.4h3.2c2.5 0 2.6-4.4 0-4.4z"/>
		<path id="Layer" class="s0" d="m307.4 463.4c-1.6-0.2-2.9-0.4-2.8-1.8 0.2-2.1 5-2.3 5 0.1 1.5 0 2.7 0 4.3 0 0.1-7.7-13.8-7.7-13.6 0 0 3.8 2.6 5.2 6.5 5.5 1.7 0.1 3.2 0.4 3.2 1.6 0 2.1-5.6 2.1-5.6-0.2-1.5 0-2.9 0-4.4 0-0.1 7.9 14.5 7.8 14.5 0.2 0-4.5-3.5-5-7-5.4z"/>
		<path id="Layer" class="s0" d="m323.1 460.1h2.1v-3.9h-8.7v3.9h2.1v9.9h-2.3v4h9.1v-4h-2.3z"/>
		<path id="Layer" class="s0" d="m326.6 460.3l4.4-0.1v13.8q2.3 0.1 4.5 0v-13.8h4.4q0-2 0-4h-13.3q0 2 0 4z"/>
		<path id="Layer" class="s0" d="m349.6 462.1h-0.2l-3.2-5.9h-4.9v0.7l6 9.6v7.5h4.5v-7.5l6-9.6v-0.7h-4.9z"/>
		<path id="Layer" class="s0" d="m367.3 474.1q2.4 0 4.7-0.1v-5.8h5.7c0-1.5 0-2.5 0-4h-5.7v-4h6.5c0-1.5 0-2.5 0-4-3.7 0-7.5 0-11.2 0z"/>
		<path id="Layer" fill-rule="evenodd" class="s0" d="m399.2 465.1c0 12.4-18.3 12.4-18.3 0 0-12.3 18.3-12.3 18.3 0zm-4.6 0c0-6.4-9-6.4-9 0 0 6.5 9 6.5 9 0z"/>
		<path id="Layer" fill-rule="evenodd" class="s0" d="m414.3 467.7l3.5 5.7v0.7h-5.2l-3-5.3h-2.4v5.3c-1.5 0-3.1 0-4.6 0q0-9 0-17.9c2.6 0 5.3 0 7.9 0 7 0 8.3 8.4 3.8 11.5zm-3.8-7.4c-1.1-0.1-2.2 0-3.3 0 0 1.4 0 2.9 0 4.4h3.3c2.5 0 2.6-4.4 0-4.4z"/>
		<path id="Layer" class="s0" d="m433.7 463.4c-1.6-0.2-2.9-0.4-2.8-1.8 0.1-2.1 4.9-2.3 4.9 0.1 1.6 0 2.8 0 4.4 0 0.1-7.7-13.8-7.7-13.7 0 0.1 3.8 2.6 5.2 6.5 5.5 1.8 0.1 3.3 0.4 3.3 1.6 0 2.1-5.6 2.1-5.6-0.2-1.6 0-2.9 0-4.4 0-0.1 7.9 14.4 7.8 14.4 0.2 0-4.5-3.4-5-7-5.4z"/>
		<path id="Layer" class="s0" d="m452.2 470.1c-2.7-0.1-4.5-2.4-4.5-5 0-3 1.8-5 4.5-5 1.9 0 3.3 0.8 3.9 2.6 1.6 0 2.9 0 4.5 0-0.7-4.7-4.7-6.8-8.4-6.8-4.6 0-9.2 3.1-9.2 9.2 0 6.1 4.6 9.1 9.2 9.1 3.8 0 7.8-2 8.5-7-1.6 0-3 0-4.5 0-0.5 1.9-2.1 2.9-4 2.9z"/>
		<path id="Layer" class="s0" d="m469.5 460.1h2.1v-3.9h-8.7v3.9h2v9.9h-2.2v4h9v-4h-2.2z"/>
		<path id="Layer" class="s0" d="m479.3 466.8h6q0.1-2 0-4h-6v-2.6c2.6 0 3.9 0 6.6 0q0-2 0-4c-4.2 0-7 0-11.2 0q0 8.9 0 17.8c4.2 0 7.2 0 11.4 0q0-2 0-4c-2.7 0-4.2 0-6.8 0 0-1.1 0-2.1 0-3.2z"/>
		<path id="Layer" class="s0" d="m500.8 464.9l-9.1-8.8h-1.7v17.9q2.4 0 4.8 0v-8.7l9 8.8h1.6v-17.9q-2.3-0.1-4.6-0.1c0 0 0 8.8-0.1 8.8z"/>
		<path id="Layer" class="s0" d="m518.1 470.1c-2.8-0.1-4.5-2.4-4.5-5 0-3 1.8-5 4.5-5 1.9 0 3.2 0.8 3.9 2.6 1.5 0 2.9 0 4.5 0-0.7-4.7-4.7-6.8-8.4-6.8-4.6 0-9.2 3.1-9.2 9.2 0 6.1 4.6 9.1 9.2 9.1 3.8 0 7.8-2 8.4-7-1.5 0-2.9 0-4.5 0-0.4 1.9-2 2.9-3.9 2.9z"/>
		<path id="Layer" class="s0" d="m534.6 466.8h6.1q0-2 0-4h-6.1v-2.6c2.6 0 3.9 0 6.6 0q0-2 0-4c-4.2 0-7 0-11.2 0q0 8.9 0 17.8c4.2 0 7.2 0 11.4 0q0-2 0-4c-2.7 0-4.2 0-6.8 0 0-1.1 0-2.1 0-3.2z"/>
		<path id="Layer" fill-rule="evenodd" class="s0" d="m560.1 455.9l8.1 17.5v0.6h-4.5l-1-2.2h-7.1l-1 2.2h-4.5v-0.6l8.1-17.5zm1.1 12l-2.1-4.7-2 4.7z"/>
		<path id="Layer" class="s0" d="m581.3 464.9l-9.1-8.8h-1.6v17.9q2.3 0 4.7 0v-8.7l9 8.8h1.6v-17.9q-2.3-0.1-4.6-0.1z"/>
		<path id="Layer" fill-rule="evenodd" class="s0" d="m597.2 474.1l-6.7-0.1v-17.8h6.7c11.7 0 11.7 17.8 0 17.8zm0-13.7h-2.1v9.6h2.1c5.7 0 5.7-9.6 0-9.6z"/>
		<path id="Layer" class="s0" d="m614.7 460.3l4.4-0.1v13.8q2.2 0.1 4.5 0v-13.8h4.4q0-2 0-4h-13.3q0 2 0 4z"/>
		<path id="Layer" class="s0" d="m635.3 466.8h6.1q0-2 0-4h-6.1v-2.6c2.7 0 4 0 6.7 0q0-2 0-4c-4.2 0-7.1 0-11.2 0q0 8.9 0 17.8c4.1 0 7.2 0 11.4 0q0-2 0-4c-2.7 0-4.2 0-6.9 0 0-1.1 0-2.1 0-3.2z"/>
		<path id="Layer" class="s0" d="m654.2 470.1c-2.7-0.1-4.4-2.4-4.4-5 0-3 1.7-5 4.4-5 1.9 0 3.3 0.8 3.9 2.6 1.6 0 3 0 4.5 0-0.7-4.7-4.7-6.8-8.4-6.8-4.5 0-9.1 3.1-9.2 9.2 0.1 6.1 4.7 9.1 9.2 9.1 3.8 0 7.8-2 8.5-7-1.6 0-3 0-4.5 0-0.5 1.9-2.1 2.9-4 2.9z"/>
		<path id="Layer" class="s0" d="m676.4 462.6h-5.5v-6.4c-1.6 0-3.2 0-4.7 0v17.8c1.5 0 3.1 0 4.7 0v-7.1h5.5v7.1q2.3 0 4.7 0v-17.8q-2.4 0-4.7 0z"/>
		<path id="Layer" class="s0" d="m696.4 464.9l-9.1-8.8h-1.7v17.9q2.4 0 4.8 0v-8.7l9 8.8h1.6v-17.9q-2.3-0.1-4.6-0.1z"/>
		<path id="Layer" fill-rule="evenodd" class="s0" d="m722.8 465.1c0 12.4-18.3 12.4-18.3 0 0-12.3 18.3-12.3 18.3 0zm-4.7 0c0-6.4-8.9-6.4-8.9 0 0 6.5 8.9 6.5 8.9 0z"/>
		<path id="Layer" class="s0" d="m730.8 456.2c-1.5 0-3.1 0-4.6 0v17.9c3.6 0 7.4 0 11.1 0 0-1.6 0-2.6 0-4.2h-6.5c0-7.6 0-4.5 0-13.7z"/>
		<path id="Layer" fill-rule="evenodd" class="s0" d="m757.7 465.1c0 12.4-18.4 12.4-18.4 0 0-12.3 18.4-12.3 18.4 0zm-4.7 0c0-6.4-9-6.4-9 0 0 6.5 9 6.5 9 0z"/>
		<path id="Layer" class="s0" d="m769.2 463.9v3.9h3.8c-0.8 1.7-2 2.2-3.8 2.2-2.7 0-4.5-1.9-4.5-4.9 0-2.7 1.6-5 4.5-5 1.8 0 3 0.6 3.7 2.2h4.5c-0.8-4.5-4.6-6.4-8.2-6.4-4.6 0-9.2 3.1-9.2 9.2 0 6.1 4.6 9.1 9.2 9.1 3.3 0 6.7-1.4 8-5.1 0.6-1.8 0.6-3.5 0.5-5.3z"/>
		<path id="Layer" class="s0" d="m790.2 456.2l-3.2 5.9h-0.2l-3.2-5.9h-5v0.7l6 9.6v7.6h4.6v-7.6l6-9.6v-0.7z"/>
	</g>
</svg>